<svg width="344px" height="125px" viewBox="0 0 344 125" version="1.1" xmlns="http://www.w3.org/2000/svg">
    <g id="Page-1" stroke="none" stroke-width="1" fill="none" fill-rule="evenodd">
        <g id="Artboard-1" stroke="#FFFFFF">
            <path d="M181.132,106.496 L181.132,116 L134.38,116 L134.38,47.84 L180.268,47.84 L180.268,57.344 L145.132,57.344 L145.132,76.736 L175.564,76.736 L175.564,85.664 L145.132,85.664 L145.132,106.496 L181.132,106.496 Z M249.58,116 L249.58,66.944 L229.324,104.096 L223.372,104.096 L203.02,66.944 L203.02,116 L192.268,116 L192.268,47.84 L203.788,47.84 L226.348,89.504 L248.908,47.84 L260.428,47.84 L260.428,116 L249.58,116 Z M304.204,106.784 C307.788018,106.784 310.763988,106.080007 313.132,104.672 C315.500012,103.263993 317.403993,101.424011 318.844,99.152 C320.284007,96.8799886 321.307997,94.2880146 321.916,91.376 C322.524003,88.4639854 322.828,85.4720154 322.828,82.4 L322.828,47.84 L333.676,47.84 L333.676,82.4 C333.676,87.0720234 333.132005,91.4719794 332.044,95.6 C330.955995,99.7280206 329.228012,103.343984 326.86,106.448 C324.491988,109.552016 321.436019,111.999991 317.692,113.792 C313.947981,115.584009 309.452026,116.48 304.204,116.48 C298.763973,116.48 294.172019,115.536009 290.428,113.648 C286.683981,111.759991 283.660012,109.232016 281.356,106.064 C279.051988,102.895984 277.388005,99.2640205 276.364,95.168 C275.339995,91.0719795 274.828,86.8160221 274.828,82.4 L274.828,47.84 L285.58,47.84 L285.58,82.4 C285.58,85.5360157 285.883997,88.5599854 286.492,91.472 C287.100003,94.3840146 288.123993,96.9759886 289.564,99.248 C291.004007,101.520011 292.923988,103.343993 295.324,104.72 C297.724012,106.096007 300.683982,106.784 304.204,106.784 L304.204,106.784 Z" id="EMU"></path>
            <path d="M46.01562,17.93246 C41.79175,16.05194 46.34446,20.80434 45.92192,21.24496 L45.57822,21.21376 C45.37436,21.14096 45.07845,21.01472 44.64072,20.74501 C41.69082,23.09526 41.61915,27.9787 38.57822,30.68251 C36.58355,34.98755 36.09845,39.66588 34.64072,44.15126 C33.92276,48.45418 33.29191,52.749117 34.35947,57.057507 C34.68,60.559097 33.67028,65.316157 36.85947,67.776257 C41.58675,71.659297 45.51522,76.571687 49.484465,81.245007 C55.703605,88.898337 61.213945,97.107517 66.078215,105.682507 C66.402525,103.564947 67.187755,109.947097 68.609465,110.370007 C68.117855,107.177697 67.477335,102.106727 67.171965,98.182507 C65.590565,87.891607 60.518915,78.533477 58.609465,68.338757 C58.550765,67.908387 58.481375,67.466727 58.421965,67.026257 L58.421965,65.745007 C57.640205,60.702037 57.415315,55.279547 61.078215,51.338757 C64.817895,47.56666 70.384545,46.61631 74.890715,43.99501 C75.892655,43.40382 76.939925,42.92327 78.015715,42.58876 C81.163925,41.62535 84.495535,41.65553 87.734415,42.18251 C88.185215,42.26301 88.504555,42.31271 88.796915,42.36996 C91.168275,42.58129 95.941545,43.50683 96.796915,41.86996 C93.524665,39.08365 88.811655,39.27785 84.828165,38.18246 C84.197575,38.06777 83.416345,37.94205 82.640665,37.86996 L78.734415,36.99496 L77.765665,36.74496 L63.796915,34.05741 C63.574795,33.85515 63.332575,33.64808 63.109415,33.49491 L76.734415,35.18241 C77.214525,35.2269 77.690175,35.31352 78.171915,35.36991 L87.796915,37.18236 C89.457945,37.80188 91.229115,38.2661 92.890665,38.36986 C95.633295,38.76893 99.115925,42.86078 100.015665,43.05736 C99.574705,38.75036 95.273465,36.8215 91.703165,35.55736 C87.531965,33.52933 81.300865,33.60319 80.640665,27.99486 C80.465065,27.6041 80.291645,27.21368 80.078165,26.83861 L78.453165,24.68236 C76.298425,22.03425 73.175555,20.1292 69.859415,19.40116 C66.568015,18.26505 62.871685,17.13406 59.390665,16.68241 C58.209345,20.16067 56.887565,13.9268 54.046915,15.77616 C51.556955,16.07104 51.900775,16.72872 50.046915,15.15116 C49.989865,17.33652 46.18111,15.43417 46.01562,17.93246 Z" id="path3499-9-7-path"></path>
            <path d="M67.953115,25.30746 C68.854985,25.28366 69.885885,25.44954 70.921865,25.80746 C73.684455,26.76193 75.483375,28.77269 74.953115,30.30746 C74.422855,31.84223 71.746955,32.29318 68.984365,31.33871 C66.221775,30.38424 64.422865,28.40473 64.953115,26.86996 C65.284525,25.91073 66.450005,25.34715 67.953115,25.30746 L67.953115,25.30746 Z" id="path3499-9-7-path"></path>
            <path d="M64.874995,6 C34.02418,6 9,30.87043 9,61.562497 C9,92.254567 34.02418,117.124987 64.874995,117.124987 C74.969955,117.124987 84.421245,114.472487 92.593745,109.812487 L95.499995,117.124987 L97.906245,117.124987 L117.906245,117.124987 L118.031245,117.124987 L109.218745,95.343747 C116.434115,85.981547 120.718745,74.271387 120.718745,61.562497 C120.718745,30.87043 95.725815,6 64.874995,6 L64.874995,6 Z" id="path3834-7-7-2-5-5-0-5-4"></path>
        </g>
    </g>
</svg>