<svg width="400" height="170" viewBox="0 0 400 170" xmlns="http://www.w3.org/2000/svg"><title>Artboard 1</title><g stroke="#FFF" fill="none" fill-rule="evenodd"><path d="M211.185 139.176v11.551h-56.551V67.884h55.506v11.551h-42.5v23.57h36.81v10.851h-36.81v25.32h43.545zm82.795 11.551V91.103l-24.502 45.156h-7.2l-24.617-45.156v59.624h-13.006V67.884h13.935l27.288 50.64 27.289-50.64H307.1v82.843H293.98zm66.073-11.201c4.335 0 7.935-.856 10.8-2.567 2.864-1.711 5.167-3.948 6.909-6.71 1.741-2.76 2.98-5.911 3.716-9.45a53.486 53.486 0 0 0 1.103-10.91V67.884h13.121v42.005c0 5.679-.658 11.026-1.974 16.044-1.316 5.017-3.406 9.412-6.27 13.185-2.865 3.772-6.561 6.748-11.09 8.926s-9.967 3.267-16.315 3.267c-6.58 0-12.135-1.148-16.663-3.442-4.53-2.295-8.187-5.368-10.974-9.218-2.787-3.85-4.8-8.265-6.038-13.243-1.239-4.979-1.858-10.152-1.858-15.519V67.884h13.005v42.005c0 3.812.368 7.487 1.104 11.026.735 3.54 1.974 6.69 3.715 9.452 1.742 2.761 4.065 4.978 6.968 6.65 2.903 1.673 6.483 2.509 10.741 2.509zM47.748 31.533c-5.11-2.285.397 3.49-.114 4.026l-.415-.038c-.247-.088-.605-.241-1.134-.57-3.569 2.857-3.655 8.793-7.334 12.08-2.412 5.232-3 10.918-4.762 16.37-.869 5.23-1.632 10.45-.34 15.686.387 4.256-.834 10.038 3.023 13.028 5.719 4.72 10.47 10.69 15.272 16.37 7.522 9.302 14.188 19.28 20.071 29.702.393-2.574 1.343 5.184 3.062 5.698-.594-3.88-1.37-10.044-1.739-14.813-1.912-12.508-8.047-23.882-10.357-36.273-.07-.524-.155-1.06-.227-1.596v-1.557c-.945-6.13-1.217-12.72 3.213-17.51 4.524-4.584 11.257-5.74 16.708-8.926a17.926 17.926 0 0 1 3.78-1.709c3.808-1.17 7.838-1.134 11.756-.493.545.097.931.158 1.285.227 2.868.257 8.642 1.382 9.677-.607-3.958-3.387-9.66-3.15-14.478-4.482a31.209 31.209 0 0 0-2.646-.38l-4.725-1.064-1.171-.303-16.897-3.267a8.243 8.243 0 0 0-.832-.684L84.905 52.5c.581.054 1.156.16 1.74.228l11.641 2.203c2.01.753 4.152 1.317 6.162 1.444 3.317.485 7.53 5.458 8.618 5.697-.533-5.235-5.736-7.58-10.054-9.116-5.046-2.465-12.583-2.375-13.382-9.192-.212-.475-.422-.949-.68-1.405l-1.966-2.62c-2.606-3.22-6.384-5.535-10.395-6.42-3.981-1.38-8.452-2.755-12.663-3.304-1.429 4.228-3.028-3.35-6.464-1.102-3.011.359-2.596 1.158-4.838-.76-.069 2.657-4.676.345-4.876 3.381z"/><path d="M74.283 40.497c1.091-.029 2.338.173 3.591.608 3.342 1.16 5.518 3.604 4.877 5.47-.642 1.865-3.879 2.413-7.22 1.253-3.342-1.16-5.518-3.566-4.876-5.432.4-1.166 1.81-1.85 3.628-1.899z"/><path d="M70.56 17.03c-37.317 0-67.586 30.228-67.586 67.532 0 37.305 30.269 67.533 67.586 67.533 12.211 0 23.643-3.224 33.529-8.888l3.515 8.888h27.254l-10.66-26.474c8.728-11.379 13.91-25.612 13.91-41.059 0-37.304-30.23-67.532-67.548-67.532z"/></g></svg>